<?xml version="1.0" encoding="UTF-8"?>
<!DOCTYPE svg PUBLIC "-//W3C//DTD SVG 1.1//EN" "http://www.w3.org/Graphics/SVG/1.1/DTD/svg11.dtd">
<!-- Creator: CorelDRAW 2020 (64-Bit) -->
<svg xmlns="http://www.w3.org/2000/svg" xml:space="preserve" width="5cm" height="5.15304cm" version="1.1" style="shape-rendering:geometricPrecision; text-rendering:geometricPrecision; image-rendering:optimizeQuality; fill-rule:evenodd; clip-rule:evenodd"
viewBox="0 0 5370.63 5535.02"
 xmlns:xlink="http://www.w3.org/1999/xlink"
 xmlns:xodm="http://www.corel.com/coreldraw/odm/2003"
 xmlns:svg="http://www.w3.org/2000/svg">
 <defs>
  <style type="text/css">
   <![CDATA[
    .str0 {stroke:black;stroke-width:6.79;stroke-miterlimit:22.9256}
    .str1 {stroke:black;stroke-width:227.49;stroke-linecap:round;stroke-miterlimit:22.9256}
    .fil6 {fill:none}
    .fil5 {fill:black}
    .fil3 {fill:#659C35;fill-rule:nonzero}
    .fil4 {fill:#88C057;fill-rule:nonzero}
    .fil2 {fill:#9B6026;fill-rule:nonzero}
    .fil0 {fill:#ED8F20;fill-rule:nonzero}
    .fil1 {fill:#EF771D;fill-rule:nonzero}
   ]]>
  </style>
 </defs>
 <g id="Слой_x0020_1">
  <metadata id="CorelCorpID_0Corel-Layer"/>
  <g id="_2792246626544">
   <g id="g375">
    <g id="_2494211901648">
     <g id="g135">
      <path id="path99" class="fil0" d="M3836.89 1385.57l-546.63 -45 202.38 -509.79c33.08,-83.24 74.74,-161 122.35,-233.83 -317.41,-139.64 -668,-217.73 -1037.07,-217.73 -1423.76,0 -2577.91,1154.15 -2577.91,2577.91 0,1423.76 1154.15,2577.89 2577.91,2577.89 1423.76,0 2577.91,-1154.13 2577.91,-2577.89 0,-650.82 -241.68,-1244.92 -639.55,-1698.51 -206.44,99.45 -439.53,146.72 -679.38,126.95l-0.01 0z"/>
      <circle id="circle101" class="fil1" cx="4057.19" cy="1986.77" r="214.83"/>
      <circle id="circle103" class="fil1" cx="4628.62" cy="3184.96" r="214.83"/>
      <circle id="circle105" class="fil1" cx="4594.25" cy="2523.83" r="214.83"/>
      <circle id="circle107" class="fil1" cx="3945.05" cy="2957.02" r="214.83"/>
      <circle id="circle109" class="fil1" cx="4057.19" cy="3705.37" r="214.83"/>
      <circle id="circle111" class="fil1" cx="2123.76" cy="1127.46" r="214.83"/>
      <circle id="circle113" class="fil1" cx="1371.89" cy="1449.71" r="214.83"/>
      <g id="g121">
       <g id="g117">
        <path id="path115" class="fil0" d="M2900.14 1238.42c0,0 456.52,75.19 580.03,386.68l-580.03 -386.68zm0 0l0 0z"/>
       </g>
       <path id="path119" class="fil2" d="M3480.16 1732.63c-42.63,0 -83.02,-25.69 -99.88,-67.89 -99.36,-250.39 -494.01,-319.66 -497.87,-320.31 -58.43,-9.89 -97.95,-65.1 -88.18,-123.64 9.66,-58.31 64.77,-97.95 123.2,-88.29 21.15,3.44 518.16,89.28 662.53,453.08 21.81,55.1 -5.15,117.62 -60.26,139.42 -12.9,5.15 -26.33,7.63 -39.55,7.63l0.01 0z"/>
      </g>
      <g id="g129">
       <g id="g125">
        <path id="path123" class="fil0" d="M2964.6 1560.65c111.39,-122.44 251.88,-217.51 406.76,-275.71l-406.76 275.71zm0 0l0 0z"/>
       </g>
       <path id="path127" class="fil2" d="M2964.48 1668.07c-25.78,0 -51.66,-9.24 -72.29,-27.92 -43.83,-39.97 -47.05,-107.84 -7.09,-151.78 122.68,-134.8 277.66,-239.85 448.57,-304.08 55.53,-20.62 117.39,7.21 138.35,62.74 20.74,55.53 -7.32,117.5 -62.85,138.35 -139.08,52.21 -265.4,137.79 -365.19,247.46 -21.27,23.43 -50.28,35.24 -79.49,35.24z"/>
      </g>
      <path id="path131" class="fil3" d="M5370.63 49.47l-546.61 -45.02c-577.35,-47.47 -1117.76,287.97 -1331.38,826.33l-202.38 509.79 546.63 45c577.24,47.49 1117.74,-287.97 1331.38,-826.33l202.36 -509.77z"/>
      <path id="path133" class="fil4" d="M3350.52 1188.9l-60.26 151.78 77.13 6.32c672.2,-656.39 1402.71,-871.85 1482.61,-876.9l3.77 -60.06 44.35 44.37 16.98 -63.69 -47.7 -45.67c-64.23,-14.17 -814.52,193.03 -1516.89,843.85l0 0z"/>
     </g>
     <g id="g137">
     </g>
     <g id="g139">
     </g>
     <g id="g141">
     </g>
     <g id="g143">
     </g>
     <g id="g145">
     </g>
     <g id="g147">
     </g>
     <g id="g149">
     </g>
     <g id="g151">
     </g>
     <g id="g153">
     </g>
     <g id="g155">
     </g>
     <g id="g157">
     </g>
     <g id="g159">
     </g>
     <g id="g161">
     </g>
     <g id="g163">
     </g>
     <g id="g165">
     </g>
    </g>
    <circle id="circle168" class="fil5 str0" cx="1607.5" cy="2616.58" r="118.13"/>
    <circle id="circle170" class="fil5 str0" cx="2918.53" cy="2797.89" r="118.13"/>
    <path id="path172" class="fil6 str1" d="M2466.14 3378.05c-36.55,152.3 -174.77,258.15 -331.31,253.8 -182.87,-5.11 -326.98,-157.47 -321.89,-340.35 0.04,-1.69 0.11,-3.37 0.18,-5.07"/>
   </g>
  </g>
 </g>
</svg>
