<?xml version="1.0" standalone="no"?>
<!DOCTYPE svg PUBLIC "-//W3C//DTD SVG 20010904//EN"
 "http://www.w3.org/TR/2001/REC-SVG-20010904/DTD/svg10.dtd">
<svg version="1.0" xmlns="http://www.w3.org/2000/svg"
 width="638.000000pt" height="638.000000pt" viewBox="0 0 638.000000 638.000000"
 preserveAspectRatio="xMidYMid meet">
<metadata>
Created by potrace 1.14, written by Peter Selinger 2001-2017
</metadata>
<g transform="translate(0.000000,638.000000) scale(0.100000,-0.100000)"
fill="#000000" stroke="none">
<path d="M5378 6375 c-2 -2 -26 -6 -53 -9 -28 -3 -66 -9 -85 -14 -19 -5 -39
-10 -45 -11 -83 -15 -212 -60 -315 -108 -217 -101 -415 -263 -562 -459 l-61
-81 -71 29 c-118 49 -325 116 -426 138 -154 34 -194 42 -295 55 -27 3 -61 8
-75 11 -106 19 -544 20 -645 0 -11 -2 -47 -7 -80 -11 -79 -10 -94 -12 -135
-20 -19 -4 -44 -9 -55 -10 -11 -2 -20 -4 -20 -5 0 -2 -16 -5 -59 -14 -39 -7
-215 -55 -241 -66 -11 -4 -67 -25 -125 -45 -226 -81 -593 -281 -743 -405 -6
-5 -55 -45 -107 -87 -129 -105 -328 -305 -415 -418 -16 -21 -41 -52 -55 -69
-14 -17 -34 -44 -46 -61 -11 -16 -36 -52 -55 -80 -161 -232 -313 -559 -394
-846 -15 -51 -29 -102 -31 -112 -2 -10 -5 -26 -8 -35 -3 -9 -7 -29 -10 -45 -3
-15 -7 -35 -10 -45 -3 -9 -7 -35 -10 -57 -4 -22 -8 -51 -11 -65 -3 -14 -7 -47
-11 -75 -3 -27 -8 -70 -11 -95 -15 -129 -7 -549 12 -680 10 -65 25 -155 30
-180 3 -14 7 -37 10 -52 2 -15 6 -32 9 -37 4 -5 8 -22 10 -38 6 -39 54 -210
65 -231 5 -9 10 -21 11 -27 1 -5 6 -20 11 -33 5 -13 9 -26 9 -29 0 -11 73
-188 91 -220 10 -18 17 -33 15 -33 -2 0 24 -53 59 -118 210 -395 494 -726 854
-996 55 -41 110 -80 123 -87 13 -7 25 -15 28 -18 9 -12 110 -71 120 -71 6 0
10 -4 10 -9 0 -5 11 -12 25 -15 14 -4 25 -11 25 -17 0 -6 4 -8 9 -4 5 3 12 1
15 -4 5 -7 148 -82 166 -87 5 -1 50 -21 125 -54 148 -66 439 -149 635 -180 41
-6 86 -13 100 -16 155 -25 675 -25 770 1 8 2 35 6 60 9 25 3 56 8 70 11 14 3
39 7 55 10 37 6 70 13 70 15 0 1 9 3 20 4 42 6 273 72 325 93 8 4 18 7 23 8 4
2 9 4 12 5 3 1 8 3 13 5 9 2 47 17 132 52 84 35 299 145 367 189 29 19 58 34
63 34 6 0 10 5 10 10 0 6 5 10 10 10 6 0 16 4 23 10 7 5 62 47 122 91 145 107
218 171 345 299 154 155 226 243 356 432 123 177 296 519 329 648 1 3 4 12 8
20 21 57 79 244 83 270 1 8 9 48 18 87 8 40 18 86 21 103 3 16 8 45 11 63 9
50 12 77 19 147 3 36 8 79 10 95 5 35 6 382 1 440 -8 92 -18 182 -22 205 -3
14 -7 39 -9 55 -2 17 -7 41 -10 55 -3 14 -8 41 -11 60 -6 35 -51 213 -78 305
-22 75 -67 199 -77 209 -5 6 -9 16 -9 23 0 7 -26 68 -58 135 -33 68 -59 127
-60 132 0 5 -4 12 -9 15 -4 3 -14 17 -21 30 -63 112 -93 159 -165 265 -32 47
-70 97 -83 111 -13 14 -24 29 -24 33 0 4 -12 21 -28 37 -71 80 -70 70 -12 100
29 15 74 42 101 61 27 19 53 34 58 34 5 0 11 3 13 8 2 4 26 24 53 45 63 48
160 140 205 196 19 23 45 55 58 69 32 39 33 39 84 122 26 41 65 116 88 165 23
50 45 98 51 107 5 10 9 23 9 29 0 6 7 25 15 42 20 45 183 459 187 476 2 10 -7
15 -27 17 -16 1 -64 5 -105 9 -41 4 -100 8 -130 10 -59 3 -183 14 -240 21 -46
6 -387 13 -392 9z"/>
</g>
</svg>
