<?xml version="1.0" encoding="UTF-8" standalone="no"?>
<!-- Created with Inkscape (http://www.inkscape.org/) -->

<svg
   width="210mm"
   height="297mm"
   viewBox="0 0 210 297"
   version="1.1"
   id="svg5"
   xml:space="preserve"
   xmlns="http://www.w3.org/2000/svg"
   xmlns:svg="http://www.w3.org/2000/svg"><defs
     id="defs2"><rect
       x="-1.5118882"
       y="569.98183"
       width="202.28911"
       height="130.07229"
       id="rect1177" /><rect
       x="157.23637"
       y="421.8168"
       width="126.99861"
       height="58.963638"
       id="rect1121" /><clipPath
       id="a"><path
         fill="red"
         d="M0 0h309v319H0z"
         transform="translate(50 27)"
         id="path32" /></clipPath><clipPath
       id="clipPath1159"><path
         d="m-46.82 16.415h278.06v247.76h-278.06z"
         stroke-width=".26458"
         id="path1514" /></clipPath></defs><g
     id="mainimg"
     transform="translate(-7.3542856,-84.291427)"><rect
       style="fill:#666666;fill-opacity:1;stroke:none;stroke-width:1.44278;stroke-dasharray:none;stroke-opacity:1"
       id="bbox"
       width="228.59312"
       height="161.67111"
       x="-17.077776"
       y="-23.717598"
       transform="translate(7.3542856,84.291427)" /><g
       id="layer1"><g
         style="fill:none"
         id="g55"
         transform="matrix(0.26458333,0,0,0.26458333,52.100773,89.173227)"><circle
           id="progress-ring__circle"
           cx="196.5"
           cy="198.5"
           r="181"
           stroke="#ffffff"
           stroke-width="35"
           fill="transparent"
           stroke-dasharray="1137, 1137"
           stroke-dashoffset="7"
           transform="rotate(-90,196,198)" /><g
           clip-path="url(#a)"
           id="g30"><path
             fill="#ed8f20"
             d="m 270.756,106.855 -31.45,-2.594 11.644,-29.38 c 1.903,-4.798 4.3,-9.28 7.039,-13.477 -18.262,-8.048 -38.434,-12.548 -59.668,-12.548 -81.916,0 -148.32,66.517 -148.32,148.572 C 50,279.484 116.405,346 198.32,346 c 81.915,0 148.32,-66.516 148.32,-148.572 0,-37.508 -13.905,-71.748 -36.796,-97.89 -11.878,5.732 -25.289,8.456 -39.088,7.317 h -10e-4 z"
             id="orange" /><path
             fill="#ef771d"
             d="m 283.431,153.885 c 6.826,0 12.36,-5.543 12.36,-12.381 0,-6.838 -5.534,-12.382 -12.36,-12.382 -6.826,0 -12.36,5.544 -12.36,12.382 0,6.838 5.534,12.381 12.36,12.381 z m 32.877,69.055 c 6.827,0 12.361,-5.543 12.361,-12.381 0,-6.838 -5.534,-12.381 -12.361,-12.381 -6.826,0 -12.36,5.543 -12.36,12.381 0,6.838 5.534,12.381 12.36,12.381 z m -1.977,-38.103 c 6.826,0 12.36,-5.543 12.36,-12.381 0,-6.838 -5.534,-12.381 -12.36,-12.381 -6.827,0 -12.361,5.543 -12.361,12.381 0,6.838 5.534,12.381 12.361,12.381 z m -37.352,24.966 c 6.826,0 12.36,-5.543 12.36,-12.381 0,-6.838 -5.534,-12.381 -12.36,-12.381 -6.826,0 -12.36,5.543 -12.36,12.381 0,6.838 5.534,12.381 12.36,12.381 z m 6.452,43.13 c 6.826,0 12.36,-5.543 12.36,-12.381 0,-6.838 -5.534,-12.382 -12.36,-12.382 -6.826,0 -12.36,5.544 -12.36,12.382 0,6.838 5.534,12.381 12.36,12.381 z M 172.191,104.36 c 6.826,0 12.36,-5.543 12.36,-12.381 0,-6.838 -5.534,-12.381 -12.36,-12.381 -6.826,0 -12.36,5.543 -12.36,12.38 0,6.839 5.534,12.382 12.36,12.382 z m -43.259,18.572 c 6.826,0 12.36,-5.543 12.36,-12.381 0,-6.838 -5.534,-12.381 -12.36,-12.381 -6.826,0 -12.36,5.543 -12.36,12.381 0,6.838 5.534,12.381 12.36,12.381 z"
             id="path12" /><path
             fill="#ed8f20"
             d="m 216.86,98.374 c 0,0 26.266,4.333 33.372,22.285 z"
             id="path14" /><path
             fill="#9b6026"
             d="m 250.231,126.857 a 6.196,6.196 0 0 1 -5.746,-3.913 c -5.717,-14.431 -28.423,-18.423 -28.645,-18.46 a 6.193,6.193 0 0 1 -5.074,-7.126 c 0.556,-3.36 3.727,-5.645 7.089,-5.089 1.217,0.199 29.812,5.146 38.118,26.113 1.255,3.175 -0.296,6.779 -3.467,8.035 a 6.117,6.117 0 0 1 -2.275,0.44 z"
             id="path16" /><path
             fill="#ed8f20"
             d="m 220.569,116.945 a 60.522,60.522 0 0 1 23.403,-15.89 z"
             id="path18" /><path
             fill="#9b6026"
             d="m 220.562,123.136 a 6.176,6.176 0 0 1 -4.159,-1.609 6.202,6.202 0 0 1 -0.408,-8.748 66.807,66.807 0 0 1 25.808,-17.525 6.191,6.191 0 0 1 7.96,3.616 c 1.193,3.2 -0.421,6.772 -3.616,7.974 a 54.355,54.355 0 0 0 -21.011,14.262 6.146,6.146 0 0 1 -4.574,2.031 z"
             id="path20" /><path
             fill="#659c35"
             d="M 359,29.851 327.551,27.256 C 294.333,24.521 263.24,43.853 250.95,74.88 l -11.644,29.381 31.45,2.594 c 33.212,2.737 64.309,-16.597 76.601,-47.624 L 359,29.85 Z"
             id="path22" /><path
             fill="#88c057"
             d="m 242.773,95.52 -3.467,8.747 4.437,0.365 c 38.675,-37.83 80.705,-50.248 85.302,-50.539 l 0.217,-3.461 2.552,2.557 0.977,-3.67 -2.745,-2.633 C 326.351,46.07 283.183,58.011 242.772,95.52 Z"
             id="path24" /></g></g></g><g
       id="layer3"
       style="display:inline"><path
         fill="#000000"
         stroke="#000000"
         stroke-miterlimit="22.926"
         stroke-width="0.239"
         d="m 142.488,184.61 c 3.753,0 6.796,-3.049 6.796,-6.809 0,-3.76 -3.043,-6.808 -6.796,-6.808 -3.754,0 -6.797,3.048 -6.797,6.808 0,3.76 3.043,6.809 6.797,6.809 z m 75.43,10.449 c 3.754,0 6.797,-3.048 6.797,-6.808 0,-3.76 -3.043,-6.808 -6.797,-6.808 -3.754,0 -6.797,3.048 -6.797,6.808 0,3.76 3.043,6.808 6.797,6.808 z"
         id="path26"
         style="fill:#000000;fill-opacity:1"
         transform="matrix(0.26458333,0,0,0.26458333,52.100774,89.173227)" /><path
         stroke="#000000"
         stroke-linecap="round"
         stroke-miterlimit="22.926"
         stroke-width="8.005"
         d="m 191.89,221.687 c -2.103,8.778 -10.056,14.878 -19.062,14.628 -10.522,-0.295 -18.813,-9.076 -18.52,-19.616 0.002,-0.097 0.006,-0.194 0.01,-0.292"
         id="path28"
         style="fill:none"
         transform="matrix(0.26458333,0,0,0.26458333,52.100774,89.173227)" /></g><g
       id="g1025"
       transform="translate(-7.8003978,19.200979)"
       style="display:inline"><path
         fill="#000000"
         stroke="#000000"
         stroke-miterlimit="22.926"
         stroke-width="0.239"
         d="m 142.488,184.61 c 3.753,0 6.796,-3.049 6.796,-6.809 0,-3.76 -3.043,-6.808 -6.796,-6.808 -3.754,0 -6.797,3.048 -6.797,6.808 0,3.76 3.043,6.809 6.797,6.809 z m 75.43,10.449 c 3.754,0 6.797,-3.048 6.797,-6.808 0,-3.76 -3.043,-6.808 -6.797,-6.808 -3.754,0 -6.797,3.048 -6.797,6.808 0,3.76 3.043,6.808 6.797,6.808 z"
         id="path1021"
         style="fill:#000000;fill-opacity:1"
         transform="matrix(0.26458333,0,0,0.26458333,52.100774,89.173227)" /><path
         d="m 90.366759,147.70251 c -0.209848,-0.21897 -0.352769,-0.48695 -0.386154,-0.77988 -0.08636,-0.71037 0.49975,-1.27536 1.309078,-1.25896 7.968763,0.15122 12.398137,4.67594 12.585187,4.86902 0.55609,0.57815 0.51859,1.38113 -0.0749,1.79712 -0.59283,0.4131 -1.52253,0.28095 -2.07754,-0.29396 -0.16041,-0.16034 -3.680395,-3.67254 -10.119799,-3.79481 -0.481971,-0.0103 -0.932017,-0.22137 -1.235922,-0.53853 z"
         id="path1696"
         style="stroke-width:0.367785;stroke-dasharray:none" /><path
         d="m 96.521012,180.80155 c 0,0 2.5371,-0.8243 2.86602,-2.71159 0.34697,-1.94945 -1.2515,-2.34054 -1.2515,-2.34054 0,0 2.087838,-0.41716 2.350568,-2.75971 0.24669,-2.20818 -1.726828,-2.73365 -1.726828,-2.73365 0,0 1.945438,-0.80224 2.037698,-3.08663 0.0762,-1.92338 -1.995578,-2.86401 -1.995578,-2.86401 0,0 10.104248,-2.44885 11.143158,-2.68952 1.03489,-0.24068 2.6474,-1.23345 2.14399,-3.3975 -0.49939,-2.16606 -2.41475,-2.24227 -3.40351,-2.01163 -0.99077,0.23065 -13.525828,3.14079 -17.849916,4.1476 l -2.886072,0.66987 c -1.083027,0.25472 -1.574402,-0.22061 -0.810265,-1.02687 1.01885,-1.075 1.670672,-2.26433 1.897305,-4.23785 0.23867,-2.07581 -0.465302,-4.63897 -0.868427,-5.63375 -0.750101,-1.84717 -2.015636,-3.30725 -3.477728,-3.80865 -2.280374,-0.78219 -3.900905,0.6438 -3.092648,3.13075 1.211387,3.7184 0.41717,6.76893 -1.670672,8.61008 -4.911736,4.3261 -7.196122,7.41072 -5.675873,13.98511 1.660645,7.17005 8.778548,11.78495 15.948602,10.12431 z"
         fill="#f19020"
         id="path1704"
         style="stroke:#9b6026;stroke-width:2.00561;stroke-opacity:1" /><g
         id="layer4"
         transform="matrix(0.50018209,0,0,0.50018209,-70.1913,37.589458)"><g
           id="g2672"
           transform="translate(-18.661779,10.744658)"><path
             id="path1535"
             d="m -36.472555,168.56121 c -3.040927,6e-4 -3.958816,1.19928 -3.191537,4.10517 6.819993,25.83298 13.641308,51.66508 20.468001,77.49605 0.9185,3.4752 3.415503,5.39657 6.960299,5.39657 0.852317,2e-5 1.704633,-2e-5 2.55695,0 -0.039932,0.0839 -0.076499,0.17856 -0.1069703,0.29249 -0.3008697,1.1239 -0.083171,2.12977 0.5384685,2.98276 0.7638992,1.04747 1.7539886,0.93121 2.7217977,0.93121 37.2259631,0 74.4477071,2.5e-4 111.6696661,-0.008 0.38401,-3.2e-4 0.77996,0.0919 1.16066,-0.0191 0.11319,0.006 0.22795,0.0101 0.34571,0.0103 12.35599,0.0253 24.7131,0.0232 37.07009,0.003 2.4716,-0.004 3.9697,-1.28299 3.992,-3.25149 0.0224,-2.00739 -1.40704,-3.19067 -3.93774,-3.19567 -6.17899,-0.013 -12.35659,-0.005 -18.53479,-0.005 v 0.001 c -5.7037,0 -11.40663,-0.006 -17.10955,0.002 0.003,-0.0659 0.0142,-0.12758 0.0134,-0.19585 -0.008,-0.6378 -0.15635,-1.28521 -0.32039,-1.90738 -6.781,-25.74697 -13.569141,-51.4921 -20.361035,-77.23508 -0.903699,-3.42609 -3.431707,-5.40245 -6.985103,-5.40328 -38.983961,-0.008 -77.9670064,-0.007 -116.949967,-5.2e-4 z"
             style="fill:#808080"
             transform="translate(216.81917,30.702597)" /><path
             d="m 125.23,254.63 c 5.3476,0 10.695,-0.005 16.043,0.003 2.1905,0.003 3.4275,0.70247 3.4081,1.8891 -0.0194,1.1636 -1.3161,1.9196 -3.4554,1.9219 -10.696,0.0119 -21.391,0.0132 -32.086,-0.002 -2.1347,-0.003 -3.4132,-0.77761 -3.4112,-1.9524 0.003,-1.1787 1.239,-1.8545 3.4585,-1.8574 5.3476,-0.007 10.695,-0.002 16.043,-0.002"
             fill="#d6d6d6"
             stroke-width="0.32016"
             id="path1537"
             transform="translate(216.81917,30.702597)"
             style="display:inline" /><path
             d="m 40.309,252.39 c -18.473,0 -36.946,2.7e-4 -55.42,-2.6e-4 -3.3676,0 -5.7396,-1.8254 -6.6122,-5.1268 -6.4855,-24.54 -12.966,-49.081 -19.445,-73.623 -0.72893,-2.7607 0.14314,-3.8997 3.0321,-3.9002 37.035,-0.006 74.069,-0.007 111.1,5.2e-4 3.3758,8e-4 5.7774,1.8786 6.636,5.1334 6.4524,24.457 12.902,48.915 19.344,73.375 0.15584,0.59108 0.29713,1.2062 0.30427,1.8121 0.01534,1.2991 -0.77364,2.1474 -2.0701,2.3043 -0.43498,0.0526 -0.88027,0.0246 -1.3211,0.0246 -18.517,0.001 -37.035,7.9e-4 -55.552,7.9e-4"
             fill="#d6d6d6"
             stroke-width="0.26458"
             id="path1531"
             style="display:inline"
             transform="translate(222.00917,31.701917)" /><path
             d="m 95.67,257.97 c -0.44449,0.2196 -0.92561,0.11562 -1.388,0.11588 -34.54,0.005 -69.079,0.005 -103.62,0.005 -0.89806,0 -1.8163,0.0757 -2.5252,-0.60563 -0.57684,-0.55483 -0.77906,-1.2092 -0.49987,-1.9402 0.26357,-0.69083 0.93839,-0.47307 1.4681,-0.47307 35.013,-0.008 70.025,-0.003 105.04,-0.0267 1.0205,-5.3e-4 1.4789,0.17595 1.3335,1.2218 -0.07612,0.54848 0.11872,1.1298 0.19228,1.7029"
             fill="#d6d5d5"
             stroke-width="0.27413"
             id="path1533"
             transform="translate(222.00917,31.701917)"
             style="display:inline" /></g></g></g><g
       id="layer2"
       style="display:inline"><path
         id="path2816"
         style="opacity:1;fill:#ffffff;stroke:#000000;stroke-width:0.963187"
         d="m 82.594729,119.88282 c 0,4.29582 -4.591832,9.58981 -9.031485,12.40489 -0.29333,1.72866 -1.383846,4.76647 4.818496,13.29774 -3.833478,-0.46502 -12.694484,-8.74285 -13.448652,-10.70292 -1.596967,0.20723 -5.176807,0.55685 -6.870414,0.55685 -13.548508,0 -24.532056,-6.96513 -24.532056,-15.55676 0,-8.59194 10.98322,-15.55675 24.532056,-15.55675 13.548507,0 24.532055,6.96512 24.532055,15.55675 z" /><g
         aria-label="Press me to start!"
         transform="matrix(0.26458333,0,0,0.26458333,31.21981,-40.201186)"
         id="text1175"
         style="font-size:28px;font-family:Calibri;-inkscape-font-specification:Calibri;text-align:center;white-space:pre;shape-inside:url(#rect1177);display:inline;opacity:1"><path
           d="m 29.394799,598.15042 q -2.296,0 -3.136,-2.632 -0.812,-2.632 -0.812,-6.72 0,-2.66 0.952,-4.984 0.98,-2.352 2.968,-3.78 1.988,-1.456 4.844,-1.456 2.296,0 4.172,0.98 1.876,0.952 2.968,2.744 1.12,1.792 1.12,4.144 0,2.716 -1.092,4.564 -1.092,1.848 -2.828,2.744 -1.736,0.896 -3.668,0.896 -1.568,0 -2.884,-0.532 0.168,0.896 0.168,1.372 0,2.66 -2.772,2.66 z m 5.096,-7.84 q 1.008,0 1.736,-0.728 0.756,-0.756 0.756,-1.736 0,-1.008 -0.756,-1.736 -0.728,-0.756 -1.736,-0.756 -0.98,0 -1.736,0.756 -0.756,0.728 -0.756,1.736 0,0.98 0.756,1.736 0.756,0.728 1.736,0.728 z"
           style="font-family:'Cherry Bomb';-inkscape-font-specification:'Cherry Bomb'"
           id="path496" /><path
           d="m 46.026807,598.12242 q -1.792,0 -2.408,-2.1 -0.588,-2.1 -0.588,-5.796 0,-1.68 0.14,-2.8 0.168,-1.148 0.756,-1.932 0.616,-0.812 1.876,-0.812 0.784,0 1.372,0.364 0.616,0.364 0.784,1.036 0.616,-0.56 1.596,-0.84 0.98,-0.28 2.1,-0.28 0.896,0 1.82,0.448 0.952,0.448 1.568,1.232 0.644,0.756 0.644,1.652 0,0.896 -0.644,1.596 -0.616,0.672 -1.652,0.672 -0.336,0 -0.644,-0.084 -0.28,-0.084 -0.504,-0.168 -0.56,-0.224 -0.896,-0.224 -1.092,0 -1.932,0.868 -0.812,0.84 -0.812,2.184 0,1.484 -0.112,2.464 -0.112,0.98 -0.672,1.764 -0.56,0.756 -1.792,0.756 z"
           style="font-family:'Cherry Bomb';-inkscape-font-specification:'Cherry Bomb'"
           id="path498" /><path
           d="m 62.714851,598.12242 q -2.072,0 -3.668,-0.812 -1.596,-0.812 -2.492,-2.268 -0.868,-1.484 -0.868,-3.332 0,-1.82 0.868,-3.36 0.896,-1.54 2.464,-2.464 1.568,-0.924 3.556,-0.924 1.792,0 3.164,0.728 1.372,0.728 2.1,1.932 0.728,1.176 0.728,2.464 0,2.1 -1.596,3.08 -1.568,0.952 -3.752,0.952 -1.456,0 -2.464,-0.364 0.84,1.372 2.772,1.372 0.784,0 1.68,-0.196 0.336,-0.084 0.644,-0.084 0.616,0 0.98,0.308 0.392,0.308 0.392,0.84 0,0.868 -1.064,1.512 -1.064,0.616 -3.444,0.616 z m -1.876,-7.784 q 0.252,0.392 0.672,0.588 0.448,0.168 0.98,0.168 0.616,0 1.064,-0.28 0.476,-0.28 0.476,-0.728 0,-0.504 -0.42,-0.868 -0.392,-0.364 -1.148,-0.364 -0.756,0 -1.204,0.476 -0.42,0.448 -0.42,1.008 z"
           style="font-family:'Cherry Bomb';-inkscape-font-specification:'Cherry Bomb'"
           id="path500" /><path
           d="m 74.782844,598.12242 q -2.464,0 -3.92,-0.812 -1.456,-0.812 -1.456,-2.1 0,-0.84 0.56,-1.288 0.588,-0.476 1.484,-0.476 0.504,0 0.812,0.14 0.308,0.14 0.616,0.392 0.224,0.196 0.364,0.28 0.168,0.084 0.392,0.084 0.588,0 0.588,-0.42 0,-0.392 -0.308,-0.588 -0.308,-0.224 -1.064,-0.532 -0.7,-0.28 -0.924,-0.392 -1.288,-0.616 -1.904,-1.456 -0.616,-0.84 -0.616,-1.792 0,-1.064 0.756,-2.016 0.784,-0.98 2.184,-1.568 1.428,-0.616 3.276,-0.616 1.596,0 2.884,0.448 1.316,0.448 2.072,1.232 0.756,0.756 0.756,1.68 0,0.868 -0.56,1.316 -0.532,0.448 -1.456,0.448 -0.364,0 -0.588,-0.056 -0.196,-0.084 -0.532,-0.252 -0.196,-0.112 -0.42,-0.196 -0.196,-0.084 -0.448,-0.084 -0.224,0 -0.392,0.168 -0.168,0.14 -0.168,0.364 0,0.42 0.616,0.616 1.624,0.532 2.604,1.344 1.008,0.812 1.008,2.24 0,1.82 -1.708,2.856 -1.68,1.036 -4.508,1.036 z"
           style="font-family:'Cherry Bomb';-inkscape-font-specification:'Cherry Bomb'"
           id="path502" /><path
           d="m 87.550827,598.12242 q -2.464,0 -3.92,-0.812 -1.456,-0.812 -1.456,-2.1 0,-0.84 0.56,-1.288 0.588,-0.476 1.484,-0.476 0.504,0 0.812,0.14 0.308,0.14 0.616,0.392 0.224,0.196 0.364,0.28 0.168,0.084 0.392,0.084 0.588,0 0.588,-0.42 0,-0.392 -0.308,-0.588 -0.308,-0.224 -1.064,-0.532 -0.7,-0.28 -0.924,-0.392 -1.288,-0.616 -1.904,-1.456 -0.616,-0.84 -0.616,-1.792 0,-1.064 0.756,-2.016 0.784,-0.98 2.184,-1.568 1.428,-0.616 3.276,-0.616 1.596,0 2.884,0.448 1.316,0.448 2.072,1.232 0.756,0.756 0.756,1.68 0,0.868 -0.56,1.316 -0.532,0.448 -1.456,0.448 -0.364,0 -0.588,-0.056 -0.196,-0.084 -0.532,-0.252 -0.196,-0.112 -0.42,-0.196 -0.196,-0.084 -0.448,-0.084 -0.224,0 -0.392,0.168 -0.168,0.14 -0.168,0.364 0,0.42 0.616,0.616 1.624,0.532 2.604,1.344 1.008,0.812 1.008,2.24 0,1.82 -1.708,2.856 -1.68,1.036 -4.508,1.036 z"
           style="font-family:'Cherry Bomb';-inkscape-font-specification:'Cherry Bomb'"
           id="path504" /><path
           d="m 113.3388,598.12242 q -1.288,0 -1.764,-0.868 -0.476,-0.868 -0.476,-2.66 0,-1.316 -0.028,-1.876 -0.028,-0.588 -0.224,-0.98 -0.168,-0.392 -0.616,-0.392 -0.532,0 -0.784,0.364 -0.252,0.336 -0.308,0.896 -0.028,0.532 -0.028,1.624 0,1.344 -0.112,2.128 -0.112,0.756 -0.588,1.26 -0.476,0.476 -1.484,0.476 -3.024,0 -3.024,-7.672 0,-2.604 0.448,-4.032 0.476,-1.456 1.764,-1.82 0.476,-0.14 0.868,-0.14 0.588,0 1.064,0.252 0.476,0.252 0.672,0.7 0.392,-0.224 0.784,-0.336 0.392,-0.112 1.12,-0.112 0.896,0 1.68,0.448 0.812,0.42 1.148,1.204 0.728,-0.84 1.456,-1.232 0.756,-0.42 1.932,-0.42 1.736,0 3.024,1.036 1.316,1.008 2.016,2.8 0.728,1.764 0.728,3.92 0,2.408 -0.644,3.92 -0.644,1.512 -2.24,1.512 -1.064,0 -1.54,-0.532 -0.448,-0.532 -0.56,-1.316 -0.084,-0.812 -0.084,-2.352 0,-1.344 -0.196,-1.96 -0.196,-0.616 -0.924,-0.616 -0.532,0 -0.672,0.588 -0.14,0.56 -0.14,1.876 -0.028,0.252 -0.028,0.784 -0.056,1.792 -0.532,2.66 -0.476,0.868 -1.708,0.868 z"
           style="font-family:'Cherry Bomb';-inkscape-font-specification:'Cherry Bomb'"
           id="path506" /><path
           d="m 130.4748,598.12242 q -2.072,0 -3.668,-0.812 -1.596,-0.812 -2.492,-2.268 -0.868,-1.484 -0.868,-3.332 0,-1.82 0.868,-3.36 0.896,-1.54 2.464,-2.464 1.568,-0.924 3.556,-0.924 1.792,0 3.164,0.728 1.372,0.728 2.1,1.932 0.728,1.176 0.728,2.464 0,2.1 -1.596,3.08 -1.568,0.952 -3.752,0.952 -1.456,0 -2.464,-0.364 0.84,1.372 2.772,1.372 0.784,0 1.68,-0.196 0.336,-0.084 0.644,-0.084 0.616,0 0.98,0.308 0.392,0.308 0.392,0.84 0,0.868 -1.064,1.512 -1.064,0.616 -3.444,0.616 z m -1.876,-7.784 q 0.252,0.392 0.672,0.588 0.448,0.168 0.98,0.168 0.616,0 1.064,-0.28 0.476,-0.28 0.476,-0.728 0,-0.504 -0.42,-0.868 -0.392,-0.364 -1.148,-0.364 -0.756,0 -1.204,0.476 -0.42,0.448 -0.42,1.008 z"
           style="font-family:'Cherry Bomb';-inkscape-font-specification:'Cherry Bomb'"
           id="path508" /><path
           d="m 159.79078,585.99842 q 0,1.456 -1.372,1.988 -1.372,0.504 -3.752,0.532 -0.028,0.7 -0.028,2.268 0,1.596 0.224,2.268 0.14,0.476 0.42,0.616 0.308,0.14 0.896,0.196 0.196,0.028 0.42,0.084 0.252,0.028 0.56,0.084 0.644,0.14 1.008,0.7 0.364,0.532 0.364,1.372 0,0.952 -0.98,1.484 -0.98,0.532 -2.688,0.532 -1.568,0 -2.996,-0.896 -1.428,-0.924 -1.96,-2.464 -0.56,-1.652 -0.56,-6.244 -1.96,-0.056 -3.164,-0.504 -1.176,-0.476 -1.176,-1.68 0,-1.512 1.12,-2.016 1.12,-0.532 3.22,-0.56 0.084,-2.24 0.7,-3.724 0.616,-1.512 2.212,-1.512 1.624,0 2.1,1.4 0.504,1.4 0.448,3.836 2.548,-0.028 3.752,0.392 1.232,0.42 1.232,1.848 z"
           style="font-family:'Cherry Bomb';-inkscape-font-specification:'Cherry Bomb'"
           id="path510" /><path
           d="m 166.79081,598.15042 q -2.016,0.028 -3.612,-0.84 -1.568,-0.868 -2.464,-2.38 -0.868,-1.54 -0.924,-3.416 -0.028,-1.876 0.868,-3.36 0.896,-1.484 2.492,-2.352 1.624,-0.868 3.64,-0.868 1.96,0 3.528,0.84 1.596,0.84 2.52,2.352 0.924,1.512 0.98,3.388 0.028,1.82 -0.868,3.332 -0.896,1.484 -2.52,2.38 -1.596,0.896 -3.64,0.924 z m 0.084,-4.088 q 0.756,0 1.316,-0.588 0.56,-0.588 0.56,-1.372 0,-0.784 -0.56,-1.344 -0.56,-0.588 -1.316,-0.588 -0.756,0 -1.316,0.588 -0.56,0.56 -0.56,1.344 0,0.784 0.56,1.372 0.56,0.588 1.316,0.588 z"
           style="font-family:'Cherry Bomb';-inkscape-font-specification:'Cherry Bomb'"
           id="path512" /><path
           d="m 66.04681,636.76244 q -2.464,0 -3.92,-0.812 -1.456,-0.812 -1.456,-2.1 0,-0.84 0.56,-1.288 0.588,-0.476 1.484,-0.476 0.504,0 0.812,0.14 0.308,0.14 0.616,0.392 0.224,0.196 0.364,0.28 0.168,0.084 0.392,0.084 0.588,0 0.588,-0.42 0,-0.392 -0.308,-0.588 -0.308,-0.224 -1.064,-0.532 -0.7,-0.28 -0.924,-0.392 -1.288,-0.616 -1.904,-1.456 -0.616,-0.84 -0.616,-1.792 0,-1.064 0.756,-2.016 0.784,-0.98 2.184,-1.568 1.428,-0.616 3.276,-0.616 1.596,0 2.884,0.448 1.316,0.448 2.072,1.232 0.756,0.756 0.756,1.68 0,0.868 -0.56,1.316 -0.532,0.448 -1.456,0.448 -0.364,0 -0.588,-0.056 -0.196,-0.084 -0.532,-0.252 -0.196,-0.112 -0.42,-0.196 -0.196,-0.084 -0.448,-0.084 -0.224,0 -0.392,0.168 -0.168,0.14 -0.168,0.364 0,0.42 0.616,0.616 1.624,0.532 2.604,1.344 1.008,0.812 1.008,2.24 0,1.82 -1.708,2.856 -1.68,1.036 -4.508,1.036 z"
           style="font-family:'Cherry Bomb';-inkscape-font-specification:'Cherry Bomb'"
           id="path514" /><path
           d="m 87.662805,624.63844 q 0,1.456 -1.372,1.988 -1.372,0.504 -3.752,0.532 -0.028,0.7 -0.028,2.268 0,1.596 0.224,2.268 0.14,0.476 0.42,0.616 0.308,0.14 0.896,0.196 0.196,0.028 0.42,0.084 0.252,0.028 0.56,0.084 0.644,0.14 1.008,0.7 0.364,0.532 0.364,1.372 0,0.952 -0.98,1.484 -0.98,0.532 -2.688,0.532 -1.568,0 -2.996,-0.896 -1.428,-0.924 -1.96,-2.464 -0.56,-1.652 -0.56,-6.244 -1.96,-0.056 -3.164,-0.504 -1.176,-0.476 -1.176,-1.68 0,-1.512 1.12,-2.016 1.12,-0.532 3.22,-0.56 0.084,-2.24 0.7,-3.724 0.616,-1.512 2.212,-1.512 1.624,0 2.1,1.4 0.504,1.4 0.448,3.836 2.548,-0.028 3.752,0.392 1.232,0.42 1.232,1.848 z"
           style="font-family:'Cherry Bomb';-inkscape-font-specification:'Cherry Bomb'"
           id="path516" /><path
           d="m 92.982783,636.76244 q -2.184,0 -3.584,-0.98 -1.4,-1.008 -1.4,-2.884 0,-1.624 1.428,-2.576 1.428,-0.952 3.556,-0.952 0.784,0 1.456,0.14 0.7,0.112 0.952,0.28 0,-0.7 -0.588,-1.148 -0.588,-0.476 -1.792,-0.476 -0.532,0 -0.868,0.084 -0.336,0.084 -0.728,0.252 -0.392,0.168 -0.728,0.252 -0.308,0.084 -0.84,0.084 -0.896,0 -1.4,-0.448 -0.504,-0.476 -0.504,-1.428 0,-1.092 0.784,-1.848 0.812,-0.756 2.016,-1.12 1.204,-0.392 2.408,-0.392 2.38,0 3.976,0.896 1.624,0.868 2.38,2.324 0.783997,1.456 0.783997,3.22 0,0.952 -0.168,1.764 -0.139997,0.812 -0.391997,1.26 0.391997,0.336 0.587997,0.784 0.224,0.448 0.224,0.924 0,0.812 -0.559997,1.4 -0.532,0.588 -1.428,0.588 -0.672,0 -1.092,-0.196 -0.42,-0.196 -0.896,-0.616 -0.7,0.42 -1.54,0.616 -0.812,0.196 -2.044,0.196 z m 0.56,-2.828 q 0.588,0 0.924,-0.252 0.364,-0.252 0.364,-0.616 0,-0.364 -0.364,-0.616 -0.336,-0.252 -0.924,-0.252 -0.588,0 -0.952,0.252 -0.336,0.252 -0.336,0.616 0,0.364 0.336,0.616 0.364,0.252 0.952,0.252 z"
           style="font-family:'Cherry Bomb';-inkscape-font-specification:'Cherry Bomb'"
           id="path518" /><path
           d="m 104.65878,636.76244 q -1.792,0 -2.408,-2.1 -0.588,-2.1 -0.588,-5.796 0,-1.68 0.14,-2.8 0.168,-1.148 0.756,-1.932 0.616,-0.812 1.876,-0.812 0.784,0 1.372,0.364 0.616,0.364 0.784,1.036 0.616,-0.56 1.596,-0.84 0.98,-0.28 2.1,-0.28 0.896,0 1.82,0.448 0.952,0.448 1.568,1.232 0.644,0.756 0.644,1.652 0,0.896 -0.644,1.596 -0.616,0.672 -1.652,0.672 -0.336,0 -0.644,-0.084 -0.28,-0.084 -0.504,-0.168 -0.56,-0.224 -0.896,-0.224 -1.092,0 -1.932,0.868 -0.812,0.84 -0.812,2.184 0,1.484 -0.112,2.464 -0.112,0.98 -0.672,1.764 -0.56,0.756 -1.792,0.756 z"
           style="font-family:'Cherry Bomb';-inkscape-font-specification:'Cherry Bomb'"
           id="path520" /><path
           d="m 129.3828,624.63844 q 0,1.456 -1.372,1.988 -1.372,0.504 -3.752,0.532 -0.028,0.7 -0.028,2.268 0,1.596 0.224,2.268 0.14,0.476 0.42,0.616 0.308,0.14 0.896,0.196 0.196,0.028 0.42,0.084 0.252,0.028 0.56,0.084 0.644,0.14 1.008,0.7 0.364,0.532 0.364,1.372 0,0.952 -0.98,1.484 -0.98,0.532 -2.688,0.532 -1.568,0 -2.996,-0.896 -1.428,-0.924 -1.96,-2.464 -0.56,-1.652 -0.56,-6.244 -1.96,-0.056 -3.164,-0.504 -1.176,-0.476 -1.176,-1.68 0,-1.512 1.12,-2.016 1.12,-0.532 3.22,-0.56 0.084,-2.24 0.7,-3.724 0.616,-1.512 2.212,-1.512 1.624,0 2.1,1.4 0.504,1.4 0.448,3.836 2.548,-0.028 3.752,0.392 1.232,0.42 1.232,1.848 z"
           style="font-family:'Cherry Bomb';-inkscape-font-specification:'Cherry Bomb'"
           id="path522" /><path
           d="m 134.7028,617.16244 q -1.904,0 -2.716,1.316 -0.784,1.288 -0.784,3.192 0,1.428 0.28,3.192 0.28,1.736 0.784,3.136 0.252,0.7 0.868,1.232 0.616,0.504 1.568,0.504 0.952,0 1.54,-0.504 0.616,-0.532 0.868,-1.232 0.504,-1.428 0.784,-3.22 0.28,-1.82 0.28,-3.304 0,-1.792 -0.84,-3.052 -0.812,-1.26 -2.632,-1.26 z m -0.028,19.46 q 1.176,0 2.044,-0.868 0.868,-0.868 0.868,-2.044 0,-1.176 -0.868,-2.044 -0.868,-0.868 -2.044,-0.868 -1.176,0 -2.044,0.868 -0.868,0.868 -0.868,2.044 0,1.176 0.868,2.044 0.868,0.868 2.044,0.868 z"
           style="font-family:'Cherry Bomb';-inkscape-font-specification:'Cherry Bomb'"
           id="path524" /></g></g></g></svg>
