<svg xmlns="http://www.w3.org/2000/svg" width="400" height="400" fill="none" viewBox="0 0 400 400">
  <circle
  id="progress-ring__circle"
  cx="196.5"
  cy="198.5"
  r="181"
  stroke="white"
  stroke-width="35"
  fill="transparent"
  stroke-dasharray = "1137 1137"
  stroke-dashoffset ="7"
  transform="rotate(-90 196 198)"
  />
  
  
  <g clip-path="url(#a)">
    <path fill="#ED8F20" d="m270.756 106.855-31.45-2.594 11.644-29.38c1.903-4.798 4.3-9.28 7.039-13.477-18.262-8.048-38.434-12.548-59.668-12.548-81.916 0-148.32 66.517-148.32 148.572C50 279.484 116.405 346 198.32 346s148.32-66.516 148.32-148.572c0-37.508-13.905-71.748-36.796-97.89-11.878 5.732-25.289 8.456-39.088 7.317h-.001Z"/>
    <path fill="#EF771D" d="M283.431 153.885c6.826 0 12.36-5.543 12.36-12.381s-5.534-12.382-12.36-12.382-12.36 5.544-12.36 12.382 5.534 12.381 12.36 12.381Zm32.877 69.055c6.827 0 12.361-5.543 12.361-12.381s-5.534-12.381-12.361-12.381c-6.826 0-12.36 5.543-12.36 12.381s5.534 12.381 12.36 12.381Zm-1.977-38.103c6.826 0 12.36-5.543 12.36-12.381s-5.534-12.381-12.36-12.381c-6.827 0-12.361 5.543-12.361 12.381s5.534 12.381 12.361 12.381Zm-37.352 24.966c6.826 0 12.36-5.543 12.36-12.381s-5.534-12.381-12.36-12.381-12.36 5.543-12.36 12.381 5.534 12.381 12.36 12.381Zm6.452 43.13c6.826 0 12.36-5.543 12.36-12.381s-5.534-12.382-12.36-12.382-12.36 5.544-12.36 12.382 5.534 12.381 12.36 12.381ZM172.191 104.36c6.826 0 12.36-5.543 12.36-12.381s-5.534-12.381-12.36-12.381-12.36 5.543-12.36 12.38c0 6.839 5.534 12.382 12.36 12.382Zm-43.259 18.572c6.826 0 12.36-5.543 12.36-12.381s-5.534-12.381-12.36-12.381-12.36 5.543-12.36 12.381 5.534 12.381 12.36 12.381Z"/>
    <path fill="#ED8F20" d="M216.86 98.374s26.266 4.333 33.372 22.285L216.86 98.374Z"/>
    <path fill="#9B6026" d="M250.231 126.857a6.196 6.196 0 0 1-5.746-3.913c-5.717-14.431-28.423-18.423-28.645-18.46a6.193 6.193 0 0 1-5.074-7.126c.556-3.36 3.727-5.645 7.089-5.089 1.217.199 29.812 5.146 38.118 26.113 1.255 3.175-.296 6.779-3.467 8.035a6.117 6.117 0 0 1-2.275.44Z"/>
    <path fill="#ED8F20" d="M220.569 116.945a60.522 60.522 0 0 1 23.403-15.89l-23.403 15.89Z"/>
    <path fill="#9B6026" d="M220.562 123.136a6.176 6.176 0 0 1-4.159-1.609 6.202 6.202 0 0 1-.408-8.748 66.807 66.807 0 0 1 25.808-17.525 6.191 6.191 0 0 1 7.96 3.616c1.193 3.2-.421 6.772-3.616 7.974a54.355 54.355 0 0 0-21.011 14.262 6.146 6.146 0 0 1-4.574 2.031v-.001Z"/>
    <path fill="#659C35" d="m359 29.851-31.449-2.595c-33.218-2.735-64.311 16.597-76.601 47.624l-11.644 29.381 31.45 2.594c33.212 2.737 64.309-16.597 76.601-47.624L359 29.85Z"/>
    <path fill="#88C057" d="m242.773 95.52-3.467 8.747 4.437.365c38.675-37.83 80.705-50.248 85.302-50.539l.217-3.461 2.552 2.557.977-3.67-2.745-2.633c-3.695-.816-46.863 11.125-87.274 48.634h.001Z"/>
    <path fill="#000" stroke="#000" stroke-miterlimit="22.926" stroke-width=".239" d="M142.488 184.61c3.753 0 6.796-3.049 6.796-6.809 0-3.76-3.043-6.808-6.796-6.808-3.754 0-6.797 3.048-6.797 6.808s3.043 6.809 6.797 6.809Zm75.43 10.449c3.754 0 6.797-3.048 6.797-6.808s-3.043-6.808-6.797-6.808c-3.754 0-6.797 3.048-6.797 6.808s3.043 6.808 6.797 6.808Z"/>
    <path stroke="#000" stroke-linecap="round" stroke-miterlimit="22.926" stroke-width="8.005" d="M191.89 221.687c-2.103 8.778-10.056 14.878-19.062 14.628-10.522-.295-18.813-9.076-18.52-19.616.002-.097.006-.194.01-.292"/>
  </g>
  <defs>
    <clipPath id="a">
      <path fill="red" d="M0 0h309v319H0z" transform="translate(50 27)"/>
    </clipPath>
  </defs>
</svg>
