<?xml version="1.0" encoding="UTF-8"?>
<svg width="5cm" height="5.153cm" clip-rule="evenodd" fill-rule="evenodd" image-rendering="optimizeQuality" shape-rendering="geometricPrecision" text-rendering="geometricPrecision" version="1.1" viewBox="0 0 5370.6 5535" xml:space="preserve" xmlns="http://www.w3.org/2000/svg">
 <defs>
  <style type="text/css">
   <![CDATA[
    .str0 {stroke:black;stroke-width:6.79;stroke-miterlimit:22.9256}
    .str1 {stroke:black;stroke-width:227.49;stroke-linecap:round;stroke-miterlimit:22.9256}
    .fil6 {fill:none}
    .fil5 {fill:black}
    .fil3 {fill:#659C35;fill-rule:nonzero}
    .fil4 {fill:#88C057;fill-rule:nonzero}
    .fil2 {fill:#9B6026;fill-rule:nonzero}
    .fil0 {fill:#ED8F20;fill-rule:nonzero}
    .fil1 {fill:#EF771D;fill-rule:nonzero}
   ]]>
  </style>
 </defs>
 
  
  
   
    
     
      <path class="fil0" d="m3836.9 1385.6-546.63-45 202.38-509.79c33.08-83.24 74.74-161 122.35-233.83-317.41-139.64-668-217.73-1037.1-217.73-1423.8 0-2577.9 1154.2-2577.9 2577.9s1154.2 2577.9 2577.9 2577.9 2577.9-1154.1 2577.9-2577.9c0-650.82-241.68-1244.9-639.55-1698.5-206.44 99.45-439.53 146.72-679.38 126.95h-0.01z"/>
      <circle class="fil1" cx="4057.2" cy="1986.8" r="214.83"/>
      <circle class="fil1" cx="4628.6" cy="3185" r="214.83"/>
      <circle class="fil1" cx="4594.2" cy="2523.8" r="214.83"/>
      <circle class="fil1" cx="3945" cy="2957" r="214.83"/>
      <circle class="fil1" cx="4057.2" cy="3705.4" r="214.83"/>
      <circle class="fil1" cx="2123.8" cy="1127.5" r="214.83"/>
      <circle class="fil1" cx="1371.9" cy="1449.7" r="214.83"/>
      
       
        <path class="fil0" d="m2900.1 1238.4s456.52 75.19 580.03 386.68l-580.03-386.68zm0 0z"/>
       
       <path class="fil2" d="m3480.2 1732.6c-42.63 0-83.02-25.69-99.88-67.89-99.36-250.39-494.01-319.66-497.87-320.31-58.43-9.89-97.95-65.1-88.18-123.64 9.66-58.31 64.77-97.95 123.2-88.29 21.15 3.44 518.16 89.28 662.53 453.08 21.81 55.1-5.15 117.62-60.26 139.42-12.9 5.15-26.33 7.63-39.55 7.63h0.01z"/>
      
      
       
        <path class="fil0" d="m2964.6 1560.6c111.39-122.44 251.88-217.51 406.76-275.71l-406.76 275.71zm0 0z"/>
       
       <path class="fil2" d="m2964.5 1668.1c-25.78 0-51.66-9.24-72.29-27.92-43.83-39.97-47.05-107.84-7.09-151.78 122.68-134.8 277.66-239.85 448.57-304.08 55.53-20.62 117.39 7.21 138.35 62.74 20.74 55.53-7.32 117.5-62.85 138.35-139.08 52.21-265.4 137.79-365.19 247.46-21.27 23.43-50.28 35.24-79.49 35.24z"/>
      
      <path class="fil3" d="m5370.6 49.47-546.61-45.02c-577.35-47.47-1117.8 287.97-1331.4 826.33l-202.38 509.79 546.63 45c577.24 47.49 1117.7-287.97 1331.4-826.33l202.36-509.77z"/>
      <path class="fil4" d="m3350.5 1188.9-60.26 151.78 77.13 6.32c672.2-656.39 1402.7-871.85 1482.6-876.9l3.77-60.06 44.35 44.37 16.98-63.69-47.7-45.67c-64.23-14.17-814.52 193.03-1516.9 843.85z"/>

    <circle class="fil5 str0" cx="1607.5" cy="2616.6" r="118.13"/>
    <circle class="fil5 str0" cx="2918.5" cy="2797.9" r="118.13"/>
	
    <path class="fil6 str1" d="m2466.1 3378c-36.55 152.3-174.77 258.15-331.31 253.8-182.87-5.11-326.98-157.47-321.89-340.35 0.04-1.69 0.11-3.37 0.18-5.07"/>

   
  
 

</svg>
